<?xml version="1.0" standalone="no"?>
<!DOCTYPE svg PUBLIC "-//W3C//DTD SVG 20010904//EN"
 "http://www.w3.org/TR/2001/REC-SVG-20010904/DTD/svg10.dtd">
<svg version="1.0" xmlns="http://www.w3.org/2000/svg"
 width="280.000000pt" height="280.000000pt" viewBox="0 0 280.000000 280.000000"
 preserveAspectRatio="xMidYMid meet">
<metadata>
Created by potrace 1.14, written by Peter Selinger 2001-2017
</metadata>
<g transform="translate(0.000000,280.000000) scale(0.100000,-0.100000)"
fill="#000000" stroke="none">
<path d="M1250 2793 c-100 -11 -334 -70 -365 -92 -5 -4 -29 -13 -53 -21 -23
-7 -47 -19 -53 -27 -6 -7 -17 -13 -23 -13 -18 0 -155 -88 -228 -147 -258 -206
-426 -481 -499 -814 -32 -143 -33 -391 -4 -544 71 -368 304 -713 615 -910 135
-85 265 -142 412 -181 69 -18 76 -19 163 -32 61 -10 351 -8 395 2 14 3 59 13
100 22 111 24 233 70 339 126 103 55 123 68 224 146 263 206 453 529 512 872
11 62 13 333 4 395 -5 33 -11 74 -14 90 -8 58 -56 210 -92 293 -123 286 -355
535 -633 681 -93 49 -268 114 -340 126 -19 3 -55 11 -80 16 -45 11 -315 19
-380 12z"/>
</g>
</svg>
